<?xml version="1.0" encoding="utf-8"?>
<!-- Generator: Adobe Illustrator 22.0.1, SVG Export Plug-In . SVG Version: 6.00 Build 0)  -->
<svg version="1.1" id="Layer_1" xmlns="http://www.w3.org/2000/svg" xmlns:xlink="http://www.w3.org/1999/xlink" x="0px" y="0px"
	 viewBox="0 0 612 146" style="enable-background:new 0 0 612 146;" xml:space="preserve">
<style type="text/css">
	.st0{fill:#7E8082;}
	.st1{fill:#F05C27;}
</style>
<g>
	<path class="st0" d="M114.8,131.6H89.7l12.5-57l-34.4,57H51.1l-9.5-57l-12.5,57H4L30.2,11.9h25.1l13.1,78.6l47.5-78.6H141
		L114.8,131.6z"/>
	<path class="st0" d="M204.9,55.1l1.4-6.2h22.4l-18.1,82.8h-22.4l1.4-6.2c-5,5.3-11.2,8-18.4,8c-8.2,0-14.3-2.9-18.4-8.8
		c-4-5.9-5-13.8-2.9-23.5l4.7-21.6c2.1-9.8,6.5-17.4,13.1-23.4c6.7-5.9,14.1-8.8,22.3-8.8C197.3,47.2,202.3,49.8,204.9,55.1z
		 M178.4,79.4l-4.7,21.6c-1.5,7,1.4,11.8,7.3,11.8c3.5,0,7.2-1.6,10.9-4.6l7.9-36.2c-2.5-3-5.6-4.5-8.9-4.5
		C185,67.6,179.9,72.4,178.4,79.4z"/>
	<path class="st0" d="M298,89.8l8.5,41.8h-26.3l-3.8-25l-14.9,25h-26.3l26.8-41.8l-8.3-41h26.1l3.9,24.8l14.6-24.8h26.1L298,89.8z"
		/>
	<path class="st1" d="M385.7,131.6l-9.9-44h-0.2h-10.6l-9.6,44h-25.1l26.2-119.7h35.7c24.5,0,37.6,12.3,32.5,35.9l-0.9,4
		c-3.1,14.1-10.6,24.2-22.3,30.1l11,49.8H385.7z M370.1,64.5h9.1c10.1,0,17.2-4.5,19.1-13.4l0.6-2.7c2-9-2.5-13.4-13.2-13.4h-9.1
		L370.1,64.5z"/>
	<path class="st1" d="M500,131.6h-22.4l1.3-5.8c-4.8,5-11.1,7.4-18.7,7.4c-15.5,0-23.3-10.7-19.2-29.5l12-54.9h23.7l-11,50.4
		c-1.6,7.4,0.5,11,6.1,11c3.2,0,6.6-1.6,10.1-4.6l12.4-56.8h23.9L500,131.6z"/>
	<path class="st1" d="M607,76.7l-12,54.9h-24L582,80.9c1.5-6.9-0.7-10.7-6-10.7c-3.5,0-7,1.4-10.4,4.5l-12.5,57h-23.9l18.1-82.8H570
		l-1.3,5.9c4.8-5,10.9-7.5,18.5-7.5C602.7,47.2,611.1,58,607,76.7z"/>
</g>
</svg>
